# xmcd
#
# Track frame offsets: 
#        150
#        15536
#        31710
#        47685
#        64456
#        82301
#
# Disc length: 1280 seconds
#
# Revision: 0
# Processed by: cddbd v1.5.2PL0 Copyright (c) Steve Scherf et al.
# Submitted via: ExactAudioCopy v1.0b3
#
DISCID=4804fe06
DTITLE=Radiopostales - Irregular
DYEAR=2014
DGENRE=Rock peruano
TTITLE0=Gritos en el tejado
TTITLE1=Fugitivos
TTITLE2=Ciudad medio muerta
TTITLE3=Disparos de amor
TTITLE4=Los inundados
TTITLE5=Chau Piura
EXTD=
EXTT0=
EXTT1=
EXTT2=
EXTT3=
EXTT4=
EXTT5=
PLAYORDER=
